<svg width="25" height="24" viewBox="0 0 25 24" fill="none" xmlns="http://www.w3.org/2000/svg">
<g clip-path="url(#clip0_409_5213)">
<path d="M5.3 14.0728L4.5461 16.7446L1.79059 16.8C0.967098 15.3499 0.5 13.6909 0.5 11.9279C0.5 10.2232 0.936725 8.61551 1.71085 7.19995H1.71144L4.16462 7.62692L5.23925 9.94184C5.01434 10.5643 4.89174 11.2326 4.89174 11.9279C4.89183 12.6826 5.03582 13.4057 5.3 14.0728Z" fill="#FBBB00"/>
<path d="M24.264 9.6001C24.419 10.351 24.4998 11.1266 24.4998 11.9192C24.4998 12.808 24.3982 13.6749 24.2047 14.5112C23.5477 17.3568 21.8309 19.8417 19.4527 21.6001L19.4519 21.5994L15.6009 21.4187L15.0559 18.2892C16.634 17.438 17.8672 16.1059 18.5169 14.5112H11.2998V9.6001H24.264Z" fill="#518EF8"/>
<path d="M19.6995 21.3285L19.7002 21.3291C17.6531 23.0001 15.0527 23.9999 12.2219 23.9999C7.67285 23.9999 3.71779 21.4178 1.7002 17.6179L5.57127 14.3999C6.58004 17.134 9.17717 19.0803 12.2219 19.0803C13.5306 19.0803 14.7567 18.721 15.8088 18.0938L19.6995 21.3285Z" fill="#28B446"/>
<path d="M19.7002 2.7393L15.8802 5.89505C14.8053 5.2171 13.5347 4.82547 12.1735 4.82547C9.09987 4.82547 6.48817 6.82208 5.54225 9.6L1.70084 6.42659H1.7002C3.6627 2.60855 7.61618 0 12.1735 0C15.0347 0 17.658 1.0284 19.7002 2.7393Z" fill="#F14336"/>
</g>
<defs>
<clipPath id="clip0_409_5213">
<rect width="24" height="24" fill="white" transform="translate(0.5)"/>
</clipPath>
</defs>
</svg>
