<svg width="25" height="24" viewBox="0 0 25 24" fill="none" xmlns="http://www.w3.org/2000/svg">
<g clip-path="url(#clip0_409_5211)">
<path d="M24.5 3.75686C23.5972 4.19301 22.6424 4.48288 21.665 4.61754C22.695 3.94067 23.4651 2.86886 23.8295 1.60515C22.865 2.23876 21.8098 2.68495 20.7095 2.92442C20.0349 2.12651 19.1592 1.57178 18.1962 1.33231C17.2333 1.09284 16.2276 1.1797 15.3098 1.58159C14.392 1.98349 13.6045 2.68185 13.0496 3.58594C12.4948 4.49003 12.1982 5.55806 12.1985 6.65127C12.1985 7.08328 12.2315 7.49866 12.3125 7.89411C10.3551 7.78781 8.44004 7.22509 6.69245 6.24273C4.94487 5.26037 3.40414 3.8805 2.171 2.19334C1.53923 3.39274 1.34391 4.81378 1.62482 6.1671C1.90574 7.52043 2.64175 8.70427 3.683 9.47757C2.90414 9.45443 2.14171 9.22421 1.46 8.8063V8.86612C1.4613 10.1246 1.854 11.3442 2.57198 12.3196C3.28995 13.2949 4.28937 13.9665 5.402 14.2213C4.98108 14.3442 4.54728 14.4045 4.112 14.4007C3.79938 14.4069 3.48708 14.3757 3.1805 14.3077C3.49841 15.3894 4.11124 16.3353 4.93459 17.0153C5.75795 17.6952 6.75134 18.0757 7.778 18.1043C6.03641 19.6131 3.88846 20.4315 1.6775 20.4288C1.274 20.4288 0.887 20.4089 0.5 20.3541C2.74982 21.96 5.37151 22.8095 8.048 22.7999C17.102 22.7999 22.052 14.4921 22.052 7.29097C22.052 7.05005 22.0445 6.81743 22.034 6.58647C23.0044 5.81715 23.8401 4.85826 24.5 3.75686Z" fill="#03A9F4"/>
</g>
<defs>
<clipPath id="clip0_409_5211">
<rect width="24" height="24" fill="white" transform="translate(0.5)"/>
</clipPath>
</defs>
</svg>
